<svg xmlns="http://www.w3.org/2000/svg" width="900" height="800" version="1.1"><polygon style="fill:#5f5faf" points="100 190 177.942 145 177.942 55 100 10 22.058 55 22.058 145"/><polygon style="fill:#d7d7d7" points="177.942 325 255.885 280 255.885 190 177.942 145 100 190 100 280"/><polygon style="fill:#d7afff" points="100 460 177.942 415 177.942 325 100 280 22.058 325 22.058 415"/><polygon style="fill:#afd75f" points="177.942 595 255.885 550 255.885 460 177.942 415 100 460 100 550"/><polygon style="fill:#878787" points="255.885 190 333.827 145 333.827 55 255.885 10 177.942 55 177.942 145"/><polygon style="fill:#af875f" points="333.827 325 411.769 280 411.769 190 333.827 145 255.885 190 255.885 280"/><polygon style="fill:#0087d7" points="255.885 460 333.827 415 333.827 325 255.885 280 177.942 325 177.942 415"/><polygon style="fill:#ff875f" points="333.827 595 411.769 550 411.769 460 333.827 415 255.885 460 255.885 550"/><polygon style="fill:#00d7af" points="411.769 190 489.711 145 489.711 55 411.769 10 333.827 55 333.827 145"/><polygon style="fill:#afffaf" points="489.711 325 567.654 280 567.654 190 489.711 145 411.769 190 411.769 280"/><polygon style="fill:#d7afff" points="411.769 460 489.711 415 489.711 325 411.769 280 333.827 325 333.827 415"/><polygon style="fill:#a8a8a8" points="489.711 595 567.654 550 567.654 460 489.711 415 411.769 460 411.769 550"/><polygon style="fill:#8700ff" points="567.654 190 645.596 145 645.596 55 567.654 10 489.711 55 489.711 145"/><polygon style="fill:#87875f" points="645.596 325 723.538 280 723.538 190 645.596 145 567.654 190 567.654 280"/><polygon style="fill:#8787ff" points="567.654 460 645.596 415 645.596 325 567.654 280 489.711 325 489.711 415"/><polygon style="fill:#0ff" points="645.596 595 723.538 550 723.538 460 645.596 415 567.654 460 567.654 550"/></svg>