<svg xmlns="http://www.w3.org/2000/svg" width="1024" height="1024" version="1.1"><rect width="256" height="256" x="0" y="0" fill="#5f5faf" rx="128"/><rect width="256" height="256" x="256" y="0" fill="#878787" rx="128"/><rect width="256" height="256" x="512" y="0" fill="#00d7af" rx="128"/><rect width="256" height="256" x="768" y="0" fill="#8700ff" rx="128"/><rect width="256" height="256" x="0" y="256" fill="#d7d7d7" rx="128"/><rect width="256" height="256" x="256" y="256" fill="#af875f" rx="128"/><rect width="256" height="256" x="512" y="256" fill="#afffaf" rx="128"/><rect width="256" height="256" x="768" y="256" fill="#87875f" rx="128"/><rect width="256" height="256" x="0" y="512" fill="#d7afff" rx="128"/><rect width="256" height="256" x="256" y="512" fill="#0087d7" rx="128"/><rect width="256" height="256" x="512" y="512" fill="#d7afff" rx="128"/><rect width="256" height="256" x="768" y="512" fill="#8787ff" rx="128"/><rect width="256" height="256" x="0" y="768" fill="#afd75f" rx="128"/><rect width="256" height="256" x="256" y="768" fill="#ff875f" rx="128"/><rect width="256" height="256" x="512" y="768" fill="#a8a8a8" rx="128"/><rect width="256" height="256" x="768" y="768" fill="#0ff" rx="128"/></svg>